<svg xmlns="http://www.w3.org/2000/svg" viewBox="0 0 500 500"><title>43. Searching</title><g id="Layer_2" data-name="Layer 2"><path d="M151.87,281.65c4-.54,8.21-1.32,11.54-3.66,4.52-3.17,6.75-8.61,8.75-13.75a178.45,178.45,0,0,1,13.54,29.35,3.56,3.56,0,0,1,.27,2.21c-.41,1.26-2,1.63-3.27,1.81-10.77,1.46-21.61,2.92-32.47,2.43S128.38,297,119.31,291c-4.88-3.24-12.13-8.63-13.35-14.48A93.29,93.29,0,0,0,151.87,281.65Z" fill="#3fe2fd"/><path d="M350.74,223.85c10.86,12,17.47,29.09,12.76,44.55,10.25,1.59,20.75-2.07,29.34-7.89s15.56-13.66,22.44-21.42c-7.46,33.91-41.56,59.83-76.22,58a9.23,9.23,0,0,1-4.38-1c-3.22-2-3.1-6.6-2.75-10.36,2.22-23.68-3.35-44.6-11.58-66.47C307.94,186.18,338.18,210,350.74,223.85Z" fill="#3fe2fd"/></g><g id="Layer_1" data-name="Layer 1"><path d="M349.92,155.44H321V150a81.95,81.95,0,1,0-163.89,0v5.47h-7a77.28,77.28,0,1,0,0,154.55H187a85.35,85.35,0,0,0,112.87,20.57l13.68,15.83a25.42,25.42,0,0,0,1.21,30.31l37.06,45.84a25.36,25.36,0,0,0,35.7,3.79l1.18-.95a25.41,25.41,0,0,0,3.79-35.7l-37.06-45.85a25.43,25.43,0,0,0-31.33-6.64l-13-15A85.87,85.87,0,0,0,322.57,310h27.35a77.28,77.28,0,1,0,0-154.55Zm0,140.55H331.35a85.56,85.56,0,1,0-153.15,0H150.08a63.28,63.28,0,1,1,0-126.55h14a7,7,0,0,0,7-7V150A67.95,67.95,0,1,1,307,150v12.47a7,7,0,0,0,7,7h35.9a63.28,63.28,0,1,1,0,126.55Zm-95.14,33.46a71.56,71.56,0,1,1,71.55-71.56A71.64,71.64,0,0,1,254.78,329.45Zm80.87,18.95a11.33,11.33,0,0,1,8.87,4.23l37.06,45.84a11.38,11.38,0,0,1-1.7,16h0l-1.18.94a11.41,11.41,0,0,1-16-1.69l-37.05-45.86a11.37,11.37,0,0,1,1.7-16l1.18-.95A11.32,11.32,0,0,1,335.65,348.4Z" fill="#251ac7"/><path d="M313.36,257.89a58.59,58.59,0,1,0-58.58,58.58A58.65,58.65,0,0,0,313.36,257.89Zm-103.17,0a44.59,44.59,0,1,1,44.59,44.58A44.63,44.63,0,0,1,210.19,257.89Z" fill="#251ac7"/></g></svg>